HIERARCHY
ROOT Hips
{
	OFFSET 0.000000 0.000000 0.000000
	CHANNELS 6 Xposition Yposition Zposition Zrotation Yrotation Xrotation 
	JOINT LHipJoint
	{
		OFFSET 0.000000 0.000000 0.000000
		CHANNELS 3 Zrotation Yrotation Xrotation
		JOINT LeftUpLeg
		{
			OFFSET 1.363060 -1.794630 0.839290
			CHANNELS 3 Zrotation Yrotation Xrotation
			JOINT LeftLeg
			{
				OFFSET 2.448110 -6.726130 0.000000
				CHANNELS 3 Zrotation Yrotation Xrotation
				JOINT LeftFoot
				{
					OFFSET 2.562200 -7.039590 0.000000
					CHANNELS 3 Zrotation Yrotation Xrotation
					JOINT LeftToeBase
					{
						OFFSET 0.157640 -0.433110 2.322550
						CHANNELS 3 Zrotation Yrotation Xrotation
						End Site
						{
							OFFSET 0.000000 0.000000 0.000000
						}
					}
				}
			}
		}
	}
	JOINT RHipJoint
	{
		OFFSET 0.000000 0.000000 0.000000
		CHANNELS 3 Zrotation Yrotation Xrotation
		JOINT RightUpLeg
		{
			OFFSET -1.305520 -1.794630 0.839290
			CHANNELS 3 Zrotation Yrotation Xrotation
			JOINT RightLeg
			{
				OFFSET -2.542530 -6.985550 0.000000
				CHANNELS 3 Zrotation Yrotation Xrotation
				JOINT RightFoot
				{
					OFFSET -2.568260 -7.056230 0.000000
					CHANNELS 3 Zrotation Yrotation Xrotation
					JOINT RightToeBase
					{
						OFFSET -0.164730 -0.452590 2.363150
						CHANNELS 3 Zrotation Yrotation Xrotation
						End Site
						{
							OFFSET 0.000000 0.000000 0.000000
						}
					}
				}
			}
		}
	}
}
MOTION
Frames: 31
Frame Time: 0.008333
3.634897 17.246747 0.735456 8.793527 -83.032270 3.565871 -11.102908 0.917364 1.870153 -4.403147 10.299257 -17.666881 -2.595856 -1.538025 -2.997486 0.062728 2.537294 6.382687 0.973900 -0.000000 -36.679700 9.714243 -2.329876 2.124558 3.507836 -7.299810 -11.945196 2.097471 1.293366 -1.953131 -0.719294 -8.036285 -1.402591 -2.342500 0.000000 -40.314800
3.627343 17.245900 0.735185 8.232655 -82.829216 4.125917 -11.092354 0.929470 1.886359 -4.357981 10.226049 -17.619766 -2.598785 -1.539998 -3.115870 0.049841 2.425815 6.446400 0.952000 -0.000000 -36.755400 9.722630 -2.322396 2.108101 3.552001 -7.319240 -11.876324 2.086991 1.295561 -1.912089 -0.732741 -8.208082 -1.491327 -2.376400 0.000001 -40.224600
3.620319 17.245103 0.735395 7.697862 -82.630103 4.684235 -11.087921 0.929521 1.868367 -4.305077 10.159911 -17.560148 -2.600203 -1.538587 -3.237359 0.038480 2.317145 6.509023 0.929401 -0.000000 -36.832299 9.726651 -2.303632 2.063339 3.597103 -7.323112 -11.788123 2.074652 1.296564 -1.887718 -0.750107 -8.390534 -1.566247 -2.410500 0.000001 -40.134500
3.614095 17.244337 0.735983 7.220834 -82.460192 5.244436 -11.091203 0.913341 1.796200 -4.246869 10.098429 -17.504704 -2.599287 -1.531016 -3.361334 0.031223 2.222267 6.565280 0.907699 0.000000 -36.908100 9.724740 -2.259780 1.966719 3.642057 -7.303761 -11.695643 2.062020 1.299390 -1.881219 -0.769675 -8.574161 -1.624534 -2.443201 -0.000000 -40.048201
3.608573 17.243613 0.736833 6.801997 -82.381485 5.798015 -11.099089 0.897262 1.686439 -4.181144 10.046334 -17.454838 -2.593720 -1.515380 -3.490524 0.030252 2.151344 6.609347 0.888200 -0.000000 -36.980400 9.718486 -2.186540 1.821953 3.686898 -7.256038 -11.600559 2.052599 1.311827 -1.890589 -0.788413 -8.745415 -1.662775 -2.473300 0.000000 -39.968701
3.603757 17.242909 0.737851 6.377361 -82.412484 6.299536 -11.104478 0.909321 1.608873 -4.101250 10.014440 -17.372740 -2.581588 -1.495706 -3.615469 0.033440 2.103945 6.639919 0.872300 0.000000 -37.046700 9.713170 -2.114587 1.694584 3.732486 -7.195981 -11.471508 2.047245 1.334104 -1.910957 -0.805934 -8.898695 -1.681728 -2.499900 -0.000000 -39.898199
3.599673 17.242251 0.738999 5.903622 -82.493630 6.725723 -11.106043 0.950874 1.595559 -4.006285 10.001950 -17.234990 -2.564137 -1.476760 -3.720806 0.037700 2.075280 6.659021 0.860600 0.000000 -37.105300 9.710654 -2.071133 1.628107 3.779482 -7.145331 -11.290143 2.043150 1.357130 -1.936220 -0.823645 -9.037307 -1.686948 -2.522999 -0.000000 -39.838300
3.596084 17.241615 0.740208 5.395338 -82.583261 7.095074 -11.106343 1.007105 1.625677 -3.900961 9.998238 -17.056817 -2.543442 -1.459390 -3.802108 0.042693 2.064890 6.666847 0.853500 0.000000 -37.154900 9.709213 -2.053074 1.608471 3.827935 -7.109287 -11.073192 2.039068 1.376381 -1.961064 -0.841452 -9.162592 -1.684524 -2.542600 0.000001 -39.790100
3.592835 17.240930 0.741412 4.873054 -82.671474 7.431371 -11.106790 1.067596 1.676241 -3.789881 9.994064 -16.859623 -2.520683 -1.443054 -3.861117 0.048958 2.072898 6.662161 0.850700 -0.000000 -37.196600 9.707476 -2.049374 1.611847 3.877688 -7.088035 -10.842601 2.035428 1.391704 -1.980247 -0.857715 -9.273596 -1.680315 -2.559100 0.000000 -39.755200
3.589637 17.240143 0.742569 4.354154 -82.754002 7.747562 -11.107667 1.127392 1.735064 -3.676627 9.982296 -16.658460 -2.496728 -1.427594 -3.901312 0.056599 2.097259 6.645034 0.851500 0.000000 -37.231700 9.705018 -2.052677 1.623260 3.928826 -7.083699 -10.614999 2.032900 1.403677 -1.987842 -0.870925 -9.368859 -1.680442 -2.573000 0.000000 -39.733500
3.586128 17.239188 0.743659 3.849800 -82.825898 8.051389 -11.108767 1.184421 1.797021 -3.564697 9.958853 -16.465769 -2.472599 -1.413222 -3.924849 0.065133 2.132364 6.616081 0.854600 0.000000 -37.261900 9.701880 -2.059201 1.635728 3.981600 -7.098021 -10.403137 2.031812 1.412993 -1.979435 -0.879880 -9.449689 -1.690400 -2.585000 0.000001 -39.725100
3.582023 17.238055 0.744683 3.368142 -82.880506 8.346127 -11.109608 1.237830 1.860928 -3.458124 9.921948 -16.293166 -2.449491 -1.400507 -3.934147 0.073814 2.171651 6.576879 0.858600 0.000000 -37.289400 9.698329 -2.067352 1.647522 4.036085 -7.131539 -10.217803 2.032216 1.420336 -1.952670 -0.884106 -9.518761 -1.714353 -2.596300 0.000000 -39.727400
3.577288 17.236662 0.745665 2.910853 -82.911717 8.630233 -11.110245 1.287570 1.925047 -3.355170 9.866900 -16.133829 -2.427173 -1.389264 -3.937306 0.082296 2.211511 6.530580 0.862800 -0.000000 -37.318900 9.694684 -2.075182 1.652755 4.091819 -7.193226 -10.056214 2.034387 1.425214 -1.901375 -0.882251 -9.573512 -1.756410 -2.606201 -0.000000 -39.744400
3.571462 17.235053 0.746657 2.486095 -82.917358 8.906847 -11.109996 1.334432 1.991842 -3.261592 9.798364 -16.004831 -2.407464 -1.380321 -3.933451 0.089461 2.242396 6.478378 0.865200 -0.000000 -37.350299 9.691190 -2.083290 1.657085 4.149207 -7.274406 -9.929703 2.037931 1.429320 -1.830478 -0.875580 -9.621332 -1.816300 -2.616700 0.000000 -39.767800
3.564578 17.233236 0.747711 2.094130 -82.897310 9.175216 -11.108781 1.379083 2.061605 -3.178066 9.718628 -15.906287 -2.390709 -1.373679 -3.926970 0.094810 2.259636 6.422921 0.864700 -0.000000 -37.386900 9.687969 -2.091107 1.660915 4.207846 -7.373724 -9.837780 2.042719 1.433249 -1.742389 -0.864648 -9.664114 -1.893558 -2.627700 -0.000000 -39.797000
3.556594 17.231195 0.748904 1.731022 -82.853645 9.437001 -11.106949 1.422291 2.133469 -3.102413 9.630624 -15.831524 -2.376701 -1.368902 -3.923050 0.098058 2.259657 6.366620 0.860700 0.000001 -37.431501 9.684948 -2.097886 1.662749 4.267473 -7.490725 -9.774407 2.048681 1.436976 -1.636962 -0.849428 -9.701674 -1.986714 -2.639301 -0.000000 -39.833600
3.547557 17.228985 0.750296 1.399120 -82.792239 9.690855 -11.104430 1.464709 2.208015 -3.036853 9.540750 -15.784694 -2.366031 -1.366099 -3.922422 0.098908 2.239808 6.310842 0.852600 0.000000 -37.484100 9.682049 -2.103912 1.666580 4.327429 -7.615515 -9.740018 2.055385 1.441700 -1.523172 -0.831774 -9.737994 -2.090912 -2.651600 0.000000 -39.871400
3.537520 17.226672 0.751920 1.094410 -82.719584 9.939862 -11.101598 1.506668 2.284130 -2.980515 9.454547 -15.762638 -2.358615 -1.364942 -3.926923 0.097351 2.199305 6.256767 0.840199 0.000000 -37.545500 9.679047 -2.108960 1.673184 4.386954 -7.741613 -9.729755 2.062580 1.447805 -1.405855 -0.812785 -9.773943 -2.202168 -2.664500 -0.000000 -39.910000
3.526763 17.224252 0.753841 0.813847 -82.643611 10.183333 -11.098862 1.548059 2.360023 -2.932464 9.376781 -15.760221 -2.354090 -1.364992 -3.937625 0.093678 2.140185 6.205325 0.824100 0.000000 -37.615600 9.675662 -2.112703 1.682923 4.445013 -7.861937 -9.737869 2.069917 1.455466 -1.290647 -0.793713 -9.810244 -2.315656 -2.677599 0.000000 -39.949000
3.515459 17.221804 0.756013 0.559404 -82.571951 10.416502 -11.096564 1.588577 2.433754 -2.891823 9.311008 -15.771138 -2.352005 -1.365929 -3.955723 0.088404 2.066888 6.157055 0.805100 -0.000000 -37.692301 9.671819 -2.114961 1.695697 4.499695 -7.970917 -9.757947 2.077102 1.464657 -1.182808 -0.775571 -9.845557 -2.426863 -2.690000 -0.000000 -39.987400
3.503876 17.219358 0.758469 0.308269 -82.511393 10.660165 -11.095428 1.627381 2.503064 -2.856043 9.264504 -15.796292 -2.352056 -1.367115 -3.975817 0.081613 1.978359 6.109427 0.782800 -0.000000 -37.776200 9.666550 -2.115738 1.712372 4.553270 -8.058586 -9.787809 2.083894 1.475321 -1.083548 -0.758866 -9.883804 -2.533746 -2.702900 -0.000000 -40.025200
3.492230 17.216942 0.761115 0.079738 -82.467621 10.891604 -11.095419 1.664092 2.566202 -2.825465 9.234338 -15.824390 -2.353424 -1.368441 -4.001651 0.074408 1.885652 6.064242 0.759799 0.000000 -37.863100 9.660467 -2.114735 1.731085 4.601056 -8.125084 -9.819912 2.089959 1.486880 -0.996588 -0.744153 -9.920189 -2.632501 -2.714300 0.000000 -40.062800
3.480796 17.214603 0.763862 -0.126637 -82.444067 11.107077 -11.096686 1.697897 2.621334 -2.798928 9.220086 -15.849883 -2.355428 -1.369511 -4.031880 0.067444 1.794515 6.021006 0.737201 0.000000 -37.949700 9.653563 -2.111670 1.750318 4.642023 -8.169212 -9.850351 2.095124 1.498645 -0.921368 -0.731438 -9.953191 -2.722244 -2.724200 -0.000000 -40.100500
3.469671 17.212342 0.766650 -0.324756 -82.442036 11.320709 -11.099457 1.728199 2.667993 -2.774830 9.222576 -15.875445 -2.357749 -1.370073 -4.061425 0.060999 1.706597 5.977026 0.715200 0.000000 -38.034999 9.645327 -2.106802 1.770562 4.678085 -8.186723 -9.880241 2.099274 1.510320 -0.855068 -0.720596 -9.985871 -2.804316 -2.733500 0.000001 -40.138800
3.458973 17.210175 0.769375 -0.510553 -82.460728 11.527243 -11.103546 1.754658 2.705969 -2.752858 9.238385 -15.898766 -2.359952 -1.370006 -4.088728 0.055570 1.626609 5.931707 0.694800 -0.000000 -38.116100 9.635993 -2.100111 1.790727 4.708745 -8.179670 -9.909217 2.102329 1.521286 -0.794680 -0.710909 -10.017483 -2.880111 -2.742400 0.000000 -40.176900
3.448848 17.208119 0.771897 -0.666879 -82.497830 11.705599 -11.108417 1.777244 2.735113 -2.733558 9.260744 -15.912163 -2.361434 -1.369232 -4.116436 0.051822 1.561769 5.887047 0.677700 0.000000 -38.189500 9.626476 -2.091162 1.807971 4.731093 -8.155916 -9.934221 2.104238 1.530594 -0.736493 -0.701537 -10.043390 -2.951207 -2.750099 -0.000000 -40.216200
3.439326 17.206192 0.774130 -0.798337 -82.549305 11.860414 -11.113783 1.795951 2.756552 -2.716492 9.286367 -15.918448 -2.362069 -1.367773 -4.142193 0.049823 1.512563 5.841660 0.664000 -0.000000 -38.254300 9.616820 -2.080094 1.822157 4.746603 -8.118135 -9.958354 2.105045 1.537913 -0.675595 -0.691524 -10.065395 -3.021037 -2.757300 0.000001 -40.256000
3.430338 17.204379 0.776017 -0.898810 -82.610687 11.986721 -11.119202 1.811216 2.771571 -2.702188 9.311440 -15.918896 -2.361865 -1.365680 -4.165388 0.049587 1.479573 5.796457 0.653800 -0.000000 -38.309000 9.607435 -2.067008 1.832781 4.755985 -8.071621 -9.983922 2.104913 1.543029 -0.608357 -0.680311 -10.082903 -3.091985 -2.764500 -0.000000 -40.295100
3.422001 17.202681 0.777514 -0.969167 -82.677770 12.083142 -11.124307 1.823280 2.781419 -2.690820 9.333125 -15.915165 -2.360817 -1.363001 -4.185910 0.051008 1.461995 5.751515 0.646800 0.000000 -38.353700 9.598565 -2.051850 1.839299 4.760045 -8.021697 -10.012924 2.103992 1.545729 -0.531222 -0.667032 -10.095995 -3.166515 -2.771900 -0.000001 -40.333300
3.414200 17.201115 0.778633 -1.007023 -82.746382 12.148882 -11.128765 1.832793 2.787590 -2.683222 9.349525 -15.909368 -2.359179 -1.359900 -4.203985 0.053802 1.457658 5.707896 0.642900 -0.000000 -38.388100 9.590554 -2.034891 1.841816 4.759553 -7.973624 -10.047511 2.102596 1.546186 -0.443439 -0.651312 -10.103721 -3.245217 -2.779500 -0.000001 -40.369300
3.406846 17.199665 0.779382 -1.015943 -82.813953 12.189213 -11.132547 1.840392 2.791420 -2.678812 9.359840 -15.903941 -2.357073 -1.356480 -4.220114 0.057729 1.464203 5.665804 0.641300 -0.000000 -38.414400 9.583298 -2.016323 1.840609 4.756551 -7.930001 -10.089561 2.100963 1.544665 -0.343538 -0.632988 -10.107170 -3.329339 -2.787800 -0.000000 -40.402600
